<?xml version="1.0" encoding="UTF-8"?>
<svg id="Layer_2" data-name="Layer 2" xmlns="http://www.w3.org/2000/svg" viewBox="0 0 221.51 340.63">
  <defs>
    <style>
      .cls-1 {
        fill: #fff;
      }

      .cls-2 {
        fill: #e1251b;
        fill-rule: evenodd;
      }
    </style>
  </defs>
  <g id="Layer_1-2" data-name="Layer 1">
    <g>
      <path class="cls-2" d="M.46,0L.02,290.6c-.43,21,6.22,34.45,24.35,42.4,26.65,11.78,67.06,8.25,102.21.69,36.05-7.85,95.99-20.9,94.91-62.61V0H.46Z"/>
      <g>
        <path class="cls-1" d="M107.76,241c.53-5.39-3.21-6.99-7.49-5.9-2.94.76-6.31,2.81-9.19,5.81,2.14.63,3.86,2.36,3.38,5.99l-2.67,22.17c-2.07,16.45-5.88,34.3-26.11,33.22,6.89,3.42,17.31,2.36,23.14-.09,9.18-3.84,13.24-13.08,15.19-30.55l3.74-30.64Z"/>
        <path class="cls-1" d="M180.63,206.17c4.05-1.04,7.29-4.73,7.23-8.24-.06-3.51-3.39-5.52-7.45-4.48-4.05,1.04-7.28,4.73-7.22,8.24.05,3.51,3.4,5.51,7.44,4.48"/>
        <path class="cls-1" d="M177.82,272.14c-25.24-3.22-53.51,10.78-77.86,27.42,60.66-27.57,79.09-7.45,76.11,5.14,22.67-8.79,18.83-30.37,1.76-32.56"/>
        <path class="cls-1" d="M116.48,177.68c-57.44,15.11-107.26,60.35-109.03,98.85-1.62,34.98,35.24,46.2,66.57,32.62-31.9,3.5-50.02-12.3-48.98-34.91,1.64-35.51,43.01-74.51,91.58-88.51,47.62-13.72,84.86-1.75,83.35,36.61-.16,4.21-1.77,12.73-4.8,18.92-1.96,4.02-4.71,7.89-7.69,7.32-2.94-.57-2.18-6.44-1.76-10.18l2.62-21.48c.68-5.39-3.24-7.01-7.55-5.88-2.93.78-6.27,2.82-9.14,5.8,2.15.63,3.87,2.35,3.4,5.98l-2.75,22.75c-.87,5.42,1.71,11.85,9.18,10.98,13.48-1.58,30.83-18.43,32.43-37.21,2.96-34.73-41.32-56.42-97.43-41.65"/>
        <path class="cls-1" d="M101.92,229.59c4.05-1.04,7.27-4.73,7.22-8.24-.05-3.52-3.39-5.52-7.44-4.48-4.05,1.04-7.28,4.73-7.22,8.24.05,3.51,3.39,5.51,7.43,4.48"/>
        <path class="cls-1" d="M111.5,267.33c-.66,4.61-.15,9.45,6.54,7.45l7.44-2.2s-1.72-2.68-1.39-5.5l2.39-19.59c.75-6.16,3.49-10.34,5.91-10.55,2.25-.19,1.91,2.46,1.45,6.21l-2.25,18.18c-.67,4.61-.18,9.42,6.51,7.48l7.48-2.23s-1.72-2.69-1.4-5.51l2.41-19.56c.75-6.18,3.47-10.36,5.89-10.56,2.27-.2,1.92,2.48,1.48,6.23l-2.08,17.01c-.7,5.66,1.41,10.77,8.19,8.97,3.56-.95,6.67-3.69,8.6-7.81-1.58.23-2.81-.75-3.26-2.22-.88-2.8.05-7.48.31-9.8l2.08-17.1c.86-5.43-.38-11.02-7.6-9.13-4.61,1.2-9.39,5.15-12.09,10.06-.69-3.12-3.15-5.26-7.95-4-4.67,1.22-9.03,4.88-12,10.12-.93-7.14-10.19-5.37-16.77,1.5,2.12.63,3.82,2.38,3.39,5.98l-3.27,26.55Z"/>
        <path class="cls-1" d="M39.53,284.16c-2.48.49-4.49-.18-5.99-1.53-2.03,7.92,1.88,17.5,12.08,14.51,8.99-2.63,10.02-13.28,14.42-35.68,4.26-1.26,8.29-2.47,11.76-3.52l-2.48,20.33c-.74,6.01,1.47,11.31,8.68,9.39,3.77-1.01,7.17-3.92,9.2-8.29-1.67.24-2.97-.79-3.47-2.36-.93-2.97.05-7.81.33-10.27l6.3-51.08c-18.99,3.8-31.55,24.09-35.14,35.32-.64,2-1.23,3.93-1.8,5.76-7.93-.35-8.19-7.04-6.87-11.59-5.93,1.98-8.82,6.55-9.03,10.81-.3,5.7,4.19,10.82,12.55,8.41.37-.11.72-.21,1.1-.32-3.7,11.85-6.4,19.04-11.64,20.09M75.16,230.51l-2.66,21.76-10.47,3.08c-.28.09-.53.16-.81.23.09-.38.15-.76.24-1.14,1.44-6.87,6.15-17.72,13.69-23.93Z"/>
        <path class="cls-1" d="M195.7,257.25c.93,0,1.82.23,2.69.71.89.47,1.57,1.14,2.06,2.02.49.88.74,1.8.74,2.75s-.25,1.86-.74,2.73c-.48.87-1.16,1.55-2.03,2.03-.87.48-1.78.73-2.73.73s-1.87-.24-2.74-.73c-.87-.48-1.56-1.15-2.03-2.03-.48-.87-.74-1.78-.74-2.73s.26-1.87.75-2.75c.49-.88,1.19-1.55,2.06-2.02.87-.47,1.78-.71,2.7-.71ZM195.7,258.16c-.77,0-1.53.2-2.26.59-.72.4-1.29.97-1.71,1.69-.41.73-.62,1.5-.62,2.29s.2,1.55.61,2.28c.41.72.98,1.29,1.7,1.68.74.41,1.49.61,2.29.61s1.55-.21,2.27-.61c.73-.4,1.29-.96,1.69-1.68.4-.72.61-1.48.61-2.28s-.21-1.56-.62-2.29c-.41-.73-.98-1.3-1.71-1.69-.75-.39-1.5-.59-2.25-.59ZM193.29,265.76v-5.9h2.03c.69,0,1.2.05,1.5.16.31.11.56.3.74.57.18.27.29.56.29.87,0,.43-.15.81-.47,1.13-.3.33-.72.5-1.23.54.22.09.38.19.51.31.24.23.53.62.87,1.17l.73,1.16h-1.16l-.53-.93c-.42-.73-.75-1.19-1-1.37-.17-.13-.42-.21-.76-.21h-.56v2.51h-.95ZM194.24,262.45h1.15c.55,0,.93-.09,1.13-.25.21-.16.31-.38.31-.65,0-.17-.05-.33-.15-.47-.09-.14-.23-.24-.41-.31-.17-.07-.49-.11-.95-.11h-1.08v1.79Z"/>
      </g>
    </g>
  </g>
</svg>